<svg width="52" height="52" viewBox="0 0 52 52" fill="none" xmlns="http://www.w3.org/2000/svg">
<mask id="mask0" mask-type="alpha" maskUnits="userSpaceOnUse" x="3" y="0" width="46" height="52">
<path d="M8.44744 15.866L26 5.73205L43.5526 15.866V36.134L26 46.2679L8.44744 36.134V15.866Z" stroke="url(#paint0_linear)" stroke-width="3"/>
<path d="M4.23334 13.433L26 0.866025L47.7667 13.433V38.567L26 51.134L4.23334 38.567V13.433Z" stroke="#5F389E" stroke-width="1.5"/>
<rect x="19.8496" y="12.0459" width="3.48837" height="28.2942" transform="rotate(15 19.8496 12.0459)" fill="url(#paint1_linear)"/>
<rect x="36.7109" y="12.0459" width="3.48837" height="27.907" transform="rotate(15 36.7109 12.0459)" fill="url(#paint2_linear)"/>
<rect x="18.3682" y="9.40137" width="3.48837" height="36.1572" transform="rotate(-20 18.3682 9.40137)" fill="url(#paint3_linear)"/>
<rect x="11" y="20" width="1" height="11.6279" fill="#5F389E"/>
<rect x="40" y="21" width="1" height="11.6279" fill="#5F389E"/>
</mask>
<g mask="url(#mask0)">
<rect x="-3.07031" y="-3.06982" width="58.1395" height="58.1395" fill="url(#paint4_linear)"/>
</g>
<defs>
<linearGradient id="paint0_linear" x1="26" y1="4" x2="26" y2="48" gradientUnits="userSpaceOnUse">
<stop stop-color="#5F389E"/>
<stop offset="1" stop-color="#261442"/>
</linearGradient>
<linearGradient id="paint1_linear" x1="21.5938" y1="12.0459" x2="21.5938" y2="40.3401" gradientUnits="userSpaceOnUse">
<stop stop-color="#5F389E"/>
<stop offset="1" stop-color="#261442"/>
</linearGradient>
<linearGradient id="paint2_linear" x1="38.4551" y1="12.0459" x2="38.4551" y2="39.9529" gradientUnits="userSpaceOnUse">
<stop stop-color="#5F389E"/>
<stop offset="1" stop-color="#261442"/>
</linearGradient>
<linearGradient id="paint3_linear" x1="20.1124" y1="9.40137" x2="20.1124" y2="45.5586" gradientUnits="userSpaceOnUse">
<stop stop-color="#5F389E"/>
<stop offset="1" stop-color="#261442"/>
</linearGradient>
<linearGradient id="paint4_linear" x1="-3.07031" y1="-3.06982" x2="55.0692" y2="55.0697" gradientUnits="userSpaceOnUse">
<stop stop-color="#5F389E"/>
<stop offset="1" stop-color="#1E1132"/>
</linearGradient>
</defs>
</svg>
