<svg width="500" height="432" viewBox="0 0 500 432" fill="none" xmlns="http://www.w3.org/2000/svg">
<g id="Skills">
<g id="coding 1">
<g id="character">
<path id="head" d="M272.919 120.233C298.346 120.233 318.958 99.6096 318.958 74.1696C318.958 48.7296 298.346 28.1064 272.919 28.1064C247.493 28.1064 226.88 48.7296 226.88 74.1696C226.88 99.6096 247.493 120.233 272.919 120.233Z" fill="#FBBABA"/>
<path id="Vector" d="M238.557 97.2012C238.557 97.2012 247.231 162.624 233.886 169.968C220.542 177.311 313.287 177.979 313.287 177.979C313.287 177.979 292.603 121.234 301.944 103.877L238.557 97.2012Z" fill="#FBBABA"/>
<path id="chest" d="M381.01 178.31L373.297 213.451L356.988 287.798L356.499 291.87L350.871 339.007L347.127 370.321L344.617 391.355C329.353 399.204 318.29 404.623 318.29 404.623C318.29 404.623 317.338 399.849 315.805 393.742C305.092 396.955 285.271 402.286 268.473 403.351C274.59 410.173 277.401 416.581 273.588 421.31C262.081 435.567 214.575 405.7 197.959 394.563C197.572 397.229 197.425 399.925 197.52 402.618L184.805 392.834L186.063 370.321L188.186 332.229L190.853 284.46C190.012 282.414 189.307 280.315 188.743 278.177C184.849 264.321 180.122 236.653 176.497 213.451C173.579 194.778 171.388 178.999 170.925 175.641C170.862 175.203 170.831 174.977 170.831 174.977L241.22 143.857C246.223 155.465 269.582 158.954 269.582 158.954C288.934 157.619 304.103 147.409 304.103 147.409L381.01 178.31Z" fill="black"/>
<path id="hair" d="M234.619 30.5977L226.011 27.1497C226.011 27.1497 244.01 7.32357 269.052 9.04765L262.009 1.28952C262.009 1.28952 279.225 -5.60645 294.876 12.4956C303.104 22.0114 312.623 33.1968 318.557 45.797H327.776L323.929 54.2734L337.395 62.7497L323.573 61.2272C324.397 65.8689 324.523 70.6077 323.948 75.2868C323.355 79.9673 320.968 84.2343 317.29 87.1871C317.29 87.1871 306.615 65.0779 306.615 61.6298V70.2499C306.615 70.2499 298.006 62.4919 298.006 57.3199L293.311 63.3539L290.963 53.8718L262.009 63.3539L266.704 55.5959L248.705 58.1819L255.748 48.6998C255.748 48.6998 235.402 59.9058 234.619 69.388C233.837 78.87 227.881 87.8548 227.881 87.8548C227.881 87.8548 211.925 43.5277 234.619 30.5977Z" fill="black"/>
<path id="right-hand" d="M323.63 391.273C323.63 391.273 320.65 392.294 315.805 393.741C305.092 396.955 285.271 402.285 268.473 403.35C254.011 404.277 241.79 402.047 239.555 392.607C238.597 388.548 239.956 385.209 242.917 382.466C251.757 374.266 274.847 371.328 293.159 370.32C298.331 370.038 303.114 369.906 307.096 369.856C313.857 369.769 318.29 369.906 318.29 369.906L318.397 370.32L323.63 391.273Z" fill="#FBBABA"/>
<path id="right-arm" d="M431.052 339.865C426.363 344.951 414.743 352.612 400.656 360.906C395.416 363.988 389.838 367.164 384.147 370.321C370.567 377.856 356.349 385.323 344.617 391.355C329.353 399.204 318.29 404.623 318.29 404.623C318.29 404.623 317.338 399.849 315.805 393.742C313.751 385.567 310.658 375 307.434 370.321C307.321 370.158 307.209 370.008 307.096 369.857C306.157 368.623 305.211 367.903 304.279 367.903L350.871 339.007L371.006 326.516L356.499 291.87L338.306 248.41L349.287 213.451L360.325 178.31H381.01C381.01 178.31 387.859 193.268 396.618 214.127C397.927 217.247 399.279 220.498 400.656 223.855C418.675 267.703 441.138 328.934 431.052 339.865Z" fill="black"/>
<path id="left-hand" d="M273.588 421.31C262.081 435.567 214.575 405.7 197.959 394.563C194.34 392.139 192.186 390.604 192.186 390.604L207.387 370.321L212.202 363.9C212.202 363.9 216.509 366.187 222.876 369.908C223.108 370.045 223.34 370.183 223.578 370.321C229.068 373.547 235.961 377.763 242.917 382.467C252.515 388.963 262.219 396.373 268.473 403.351C274.59 410.173 277.401 416.581 273.588 421.31Z" fill="#FBBABA"/>
<path id="left-arm" d="M221.877 369.907C220.177 369.9 218.481 370.039 216.805 370.32C202.412 372.795 198.167 385.83 196.959 394.562C196.572 397.229 196.425 399.925 196.521 402.618L183.805 392.833L179.172 389.269C168.022 385.379 158.086 378.47 149.471 370.32C141.998 363.125 135.294 355.171 129.468 346.586C123.665 338.124 118.493 329.247 113.991 320.026C112.735 317.453 112.06 314.635 112.014 311.772C111.967 308.909 112.551 306.071 113.722 303.458L129.468 268.348L152.482 217.033C152.651 215.812 152.837 214.618 153.04 213.45C157.604 187.267 169.831 175.641 169.831 175.641H179.172L185.42 213.45L193.184 260.424L187.743 278.176L175.171 319.174L187.186 332.229L221.877 369.907Z" fill="black"/>
<path id="Vector_2" d="M233.448 260.462L241.434 269.783C244.401 269.217 247.499 268.552 250.69 267.805L248.397 260.462L254.005 267.008C287.811 258.689 329.714 242.515 329.714 242.515C329.714 242.515 284.475 245.834 250.698 238.45C235.753 235.184 220.377 242.596 214.244 256.617C210.679 264.767 211.239 271.828 223.882 271.828C228.154 271.755 232.414 271.354 236.624 270.629L233.448 260.462Z" fill="#5F389E"/>
</g>
<path id="desk" d="M496.79 420.521H37.8779V421.773H496.79V420.521Z" fill="#3F3D56"/>
<g id="laptop">
<path id="Vector_3" d="M415.494 413.667V417.469C415.496 418.513 415.303 419.548 414.925 420.52C414.757 420.953 414.553 421.372 414.317 421.773C413.571 423.026 412.512 424.063 411.245 424.784C409.977 425.504 408.544 425.883 407.086 425.882H127.513C126.055 425.883 124.622 425.504 123.354 424.784C122.086 424.063 121.028 423.026 120.282 421.773C120.045 421.372 119.842 420.953 119.674 420.52C119.296 419.548 119.102 418.513 119.105 417.469V413.667C119.104 412.562 119.322 411.468 119.744 410.447C120.166 409.426 120.786 408.499 121.567 407.718C122.347 406.936 123.274 406.317 124.295 405.894C125.315 405.471 126.408 405.254 127.513 405.254H143.628V403.482C143.628 403.436 143.637 403.39 143.654 403.347C143.672 403.305 143.698 403.266 143.73 403.233C143.763 403.201 143.802 403.175 143.844 403.157C143.887 403.14 143.932 403.131 143.978 403.131H152.387C152.433 403.131 152.478 403.14 152.521 403.157C152.563 403.175 152.602 403.201 152.635 403.233C152.667 403.266 152.693 403.305 152.711 403.347C152.728 403.39 152.737 403.436 152.737 403.482V405.254H157.99V403.482C157.99 403.436 157.999 403.39 158.016 403.347C158.034 403.305 158.06 403.266 158.092 403.233C158.125 403.201 158.164 403.175 158.206 403.157C158.249 403.14 158.294 403.131 158.341 403.131H166.749C166.795 403.131 166.84 403.14 166.883 403.157C166.926 403.175 166.964 403.201 166.997 403.233C167.029 403.266 167.055 403.305 167.073 403.347C167.09 403.39 167.099 403.436 167.099 403.482V405.254H172.358V403.482C172.358 403.436 172.367 403.39 172.385 403.347C172.403 403.305 172.428 403.266 172.461 403.233C172.493 403.201 172.532 403.175 172.575 403.157C172.617 403.14 172.663 403.131 172.709 403.131H181.117C181.163 403.131 181.209 403.14 181.251 403.157C181.294 403.175 181.333 403.201 181.365 403.233C181.398 403.266 181.424 403.305 181.441 403.347C181.459 403.39 181.468 403.436 181.468 403.482V405.254H186.721V403.482C186.72 403.436 186.729 403.39 186.747 403.347C186.765 403.305 186.79 403.266 186.823 403.233C186.856 403.201 186.894 403.175 186.937 403.157C186.979 403.14 187.025 403.131 187.071 403.131H195.479C195.525 403.131 195.571 403.14 195.614 403.157C195.656 403.175 195.695 403.201 195.727 403.233C195.76 403.266 195.786 403.305 195.803 403.347C195.821 403.39 195.83 403.436 195.83 403.482V405.254H201.083V403.482C201.083 403.436 201.092 403.39 201.109 403.347C201.127 403.305 201.153 403.266 201.185 403.233C201.218 403.201 201.256 403.175 201.299 403.157C201.342 403.14 201.387 403.131 201.433 403.131H209.841C209.888 403.131 209.933 403.14 209.976 403.157C210.018 403.175 210.057 403.201 210.09 403.233C210.122 403.266 210.148 403.305 210.166 403.347C210.183 403.39 210.192 403.436 210.192 403.482V405.254H215.451V403.482C215.451 403.436 215.46 403.39 215.478 403.347C215.495 403.305 215.521 403.266 215.554 403.233C215.586 403.201 215.625 403.175 215.667 403.157C215.71 403.14 215.756 403.131 215.802 403.131H224.21C224.256 403.131 224.302 403.14 224.344 403.157C224.387 403.175 224.425 403.201 224.458 403.233C224.491 403.266 224.516 403.305 224.534 403.347C224.552 403.39 224.561 403.436 224.56 403.482V405.254H229.813V403.482C229.813 403.436 229.822 403.39 229.84 403.347C229.857 403.305 229.883 403.266 229.916 403.233C229.948 403.201 229.987 403.175 230.03 403.157C230.072 403.14 230.118 403.131 230.164 403.131H296.027C296.073 403.131 296.119 403.14 296.161 403.157C296.204 403.175 296.242 403.201 296.275 403.233C296.307 403.266 296.333 403.305 296.351 403.347C296.368 403.39 296.378 403.436 296.377 403.482V405.254H301.636V403.482C301.636 403.436 301.645 403.39 301.663 403.347C301.681 403.305 301.706 403.266 301.739 403.233C301.772 403.201 301.81 403.175 301.853 403.157C301.895 403.14 301.941 403.131 301.987 403.131H310.395C310.488 403.132 310.577 403.169 310.642 403.235C310.708 403.3 310.745 403.389 310.746 403.482V405.254H315.999V403.482C315.999 403.436 316.008 403.39 316.025 403.347C316.043 403.305 316.069 403.266 316.101 403.233C316.134 403.201 316.172 403.175 316.215 403.157C316.258 403.14 316.303 403.131 316.349 403.131H324.757C324.803 403.131 324.849 403.14 324.892 403.157C324.934 403.175 324.973 403.201 325.006 403.233C325.038 403.266 325.064 403.305 325.081 403.347C325.099 403.39 325.108 403.436 325.108 403.482V405.254H330.361V403.482C330.361 403.436 330.37 403.39 330.387 403.347C330.405 403.305 330.431 403.266 330.463 403.233C330.496 403.201 330.535 403.175 330.577 403.157C330.62 403.14 330.665 403.131 330.711 403.131H339.12C339.166 403.131 339.211 403.14 339.254 403.157C339.296 403.175 339.335 403.201 339.368 403.233C339.4 403.266 339.426 403.305 339.444 403.347C339.461 403.39 339.47 403.436 339.47 403.482V405.254H344.729V403.482C344.729 403.436 344.738 403.39 344.756 403.347C344.773 403.305 344.799 403.266 344.832 403.233C344.864 403.201 344.903 403.175 344.946 403.157C344.988 403.14 345.034 403.131 345.08 403.131H353.488C353.58 403.132 353.668 403.17 353.732 403.235C353.797 403.301 353.833 403.39 353.832 403.482V405.254H359.091V403.482C359.091 403.436 359.1 403.39 359.118 403.347C359.135 403.305 359.161 403.266 359.194 403.233C359.226 403.201 359.265 403.175 359.308 403.157C359.35 403.14 359.396 403.131 359.442 403.131H367.85C367.896 403.131 367.942 403.14 367.984 403.157C368.027 403.175 368.066 403.201 368.098 403.233C368.131 403.266 368.157 403.305 368.174 403.347C368.192 403.39 368.201 403.436 368.201 403.482V405.254H373.453V403.482C373.453 403.436 373.462 403.39 373.48 403.347C373.498 403.305 373.523 403.266 373.556 403.233C373.589 403.201 373.627 403.175 373.67 403.157C373.712 403.14 373.758 403.131 373.804 403.131H382.212C382.258 403.131 382.304 403.14 382.347 403.157C382.389 403.175 382.428 403.201 382.46 403.233C382.493 403.266 382.519 403.305 382.536 403.347C382.554 403.39 382.563 403.436 382.563 403.482V405.254H407.086C408.19 405.254 409.284 405.471 410.304 405.894C411.324 406.317 412.251 406.936 413.032 407.718C413.813 408.499 414.432 409.426 414.855 410.447C415.277 411.468 415.495 412.562 415.494 413.667Z" fill="#3F3D56"/>
<g id="Vector_4">
<path d="M392.983 253.541H288.778V251.392H241.527V253.541H136.892C135.022 253.541 133.229 254.284 131.908 255.606C130.586 256.929 129.843 258.722 129.843 260.593V403.357C129.843 405.228 130.586 407.022 131.908 408.344C133.229 409.667 135.022 410.41 136.892 410.41H392.983C394.853 410.41 396.646 409.667 397.968 408.344C399.289 407.022 400.032 405.228 400.032 403.357V260.593C400.032 259.667 399.85 258.75 399.496 257.894C399.141 257.038 398.622 256.261 397.968 255.606C397.313 254.951 396.536 254.432 395.681 254.077C394.826 253.723 393.909 253.541 392.983 253.541Z" fill="#3F3D56"/>
<path d="M288.278 253.541V254.041H288.778H392.983C393.843 254.041 394.695 254.21 395.489 254.539C396.284 254.869 397.006 255.351 397.614 255.96C398.222 256.568 398.704 257.29 399.034 258.085C399.363 258.88 399.532 259.732 399.532 260.593V403.357C399.532 405.095 398.842 406.762 397.614 407.991C396.386 409.22 394.72 409.91 392.983 409.91H136.892C135.155 409.91 133.489 409.22 132.261 407.991C131.033 406.762 130.343 405.095 130.343 403.357V260.593C130.343 258.855 131.033 257.188 132.261 255.96C133.489 254.731 135.155 254.041 136.892 254.041H241.527H242.027V253.541V251.892H288.278V253.541Z" stroke="black" stroke-opacity="0.2"/>
</g>
<g id="coding-languages">
<g id="HTML">
<path id="Vector_5" d="M340.042 391.13L333 371.882L352.319 366.705L355.841 386.893L348.518 391.206L340.042 391.13Z" fill="#E44D26"/>
<path id="Vector_6" d="M348.08 389.526L353.998 386.041L350.988 368.789L343.091 370.905L348.08 389.526Z" fill="#F16529"/>
<path id="Vector_7" d="M345.051 378.221L341.851 379.079L340.966 376.661L344.387 375.745L343.739 373.326L337.675 374.951L337.907 375.584L340.287 382.09L345.699 380.64L345.051 378.221ZM346.734 384.502L346.724 384.508L343.836 384.502L343.147 382.62L340.719 383.27L342.075 386.977L347.398 387.025L347.408 387.019L346.734 384.502Z" fill="#EBEBEB"/>
<path id="Vector_8" d="M345.043 378.222L345.691 380.641L348.669 379.843L349.229 383.054L346.726 384.505L347.401 387.021L351.99 384.319L351.917 383.9L350.78 377.381L350.665 376.716L350.013 376.89L345.043 378.222ZM343.731 373.327L344.379 375.746L350.221 374.18L350.124 373.624L349.905 372.368L349.789 371.704L343.731 373.327Z" fill="white"/>
</g>
<g id="CSS">
<g id="css-5" clip-path="url(#clip0)">
<path id="Vector_9" d="M209.396 394.024L209.362 373.528L229.286 375.271L225.691 395.446L217.335 396.994L209.396 394.024Z" fill="#1572B6"/>
<path id="Vector_10" d="M217.498 395.266L224.25 394.015L227.321 376.775L219.178 376.062L217.498 395.266Z" fill="#33A9DC"/>
<path id="Vector_11" d="M218.534 383.43L221.834 383.718L222.285 381.184L218.757 380.876L218.975 378.383L225.23 378.93L225.112 379.594L223.897 386.414L218.315 385.926L218.534 383.43Z" fill="white"/>
<path id="Vector_12" d="M217.98 389.909L217.969 389.908L215.257 388.915L215.253 386.91L212.751 386.691L212.758 390.638L217.744 392.507L217.758 392.508L217.986 389.91L217.98 389.909Z" fill="#EBEBEB"/>
<path id="Vector_13" d="M221.414 386.087L220.822 389.399L217.974 389.906L217.746 392.505L222.984 391.534L223.058 391.116L223.916 386.305L221.414 386.086L221.414 386.087Z" fill="white"/>
<path id="Vector_14" d="M218.984 378.385L218.766 380.879L212.743 380.352L212.74 379.787L212.737 378.512L212.736 377.838L218.984 378.385ZM218.534 383.431L218.315 385.925L215.569 385.684L215.57 385.12L215.567 383.845L215.566 383.171L218.532 383.43L218.534 383.431Z" fill="#EBEBEB"/>
</g>
</g>
<g id="React">
<g id="react-2">
<g id="Group">
<path id="Vector_15" d="M290 331.506C290 328.192 285.852 325.051 279.492 323.104C280.96 316.619 280.308 311.46 277.434 309.808C276.771 309.42 275.997 309.237 275.151 309.237V311.511C275.62 311.511 275.997 311.602 276.313 311.776C277.699 312.571 278.3 315.599 277.831 319.494C277.719 320.453 277.536 321.462 277.311 322.492C275.314 322.003 273.133 321.625 270.84 321.381C269.464 319.494 268.037 317.781 266.6 316.282C269.923 313.193 273.041 311.5 275.161 311.5V309.227C272.358 309.227 268.689 311.225 264.98 314.692C261.27 311.245 257.601 309.267 254.798 309.267V311.541C256.908 311.541 260.037 313.224 263.359 316.293C261.932 317.791 260.506 319.494 259.15 321.381C256.847 321.625 254.666 322.003 252.668 322.502C252.434 321.483 252.26 320.494 252.138 319.545C251.659 315.65 252.25 312.622 253.626 311.816C253.932 311.633 254.329 311.551 254.798 311.551V309.278C253.942 309.278 253.168 309.461 252.495 309.849C249.631 311.5 248.989 316.649 250.467 323.114C244.128 325.072 240 328.202 240 331.506C240 334.819 244.148 337.96 250.508 339.907C249.04 346.392 249.692 351.552 252.566 353.203C253.229 353.591 254.003 353.774 254.859 353.774C257.662 353.774 261.331 351.776 265.041 348.309C268.751 351.755 272.419 353.734 275.222 353.734C276.078 353.734 276.853 353.55 277.525 353.163C280.389 351.511 281.031 346.362 279.554 339.897C285.872 337.95 290 334.809 290 331.506ZM276.731 324.705C276.353 326.02 275.885 327.376 275.355 328.732C274.937 327.916 274.499 327.101 274.02 326.285C273.551 325.469 273.051 324.674 272.552 323.899C273.999 324.113 275.395 324.378 276.731 324.705ZM272.063 335.564C271.268 336.94 270.453 338.245 269.607 339.459C268.088 339.591 266.549 339.663 265 339.663C263.461 339.663 261.922 339.591 260.414 339.469C259.568 338.256 258.742 336.961 257.947 335.594C257.173 334.259 256.47 332.902 255.828 331.536C256.459 330.17 257.173 328.804 257.937 327.468C258.732 326.091 259.547 324.786 260.393 323.573C261.912 323.44 263.451 323.369 265 323.369C266.539 323.369 268.078 323.44 269.586 323.563C270.432 324.776 271.258 326.071 272.053 327.437C272.827 328.773 273.53 330.129 274.172 331.495C273.53 332.862 272.827 334.228 272.063 335.564ZM275.355 334.238C275.905 335.604 276.374 336.971 276.761 338.296C275.426 338.623 274.02 338.898 272.562 339.112C273.062 338.327 273.561 337.521 274.03 336.695C274.499 335.88 274.937 335.054 275.355 334.238ZM265.02 345.118C264.073 344.139 263.125 343.048 262.187 341.855C263.104 341.896 264.042 341.926 264.99 341.926C265.948 341.926 266.896 341.906 267.823 341.855C266.906 343.048 265.958 344.139 265.02 345.118ZM257.438 339.112C255.991 338.898 254.594 338.633 253.259 338.306C253.636 336.991 254.105 335.635 254.635 334.279C255.053 335.095 255.491 335.91 255.97 336.726C256.449 337.542 256.938 338.337 257.438 339.112ZM264.969 317.893C265.917 318.872 266.865 319.963 267.803 321.156C266.885 321.115 265.948 321.085 265 321.085C264.042 321.085 263.094 321.105 262.167 321.156C263.084 319.963 264.032 318.872 264.969 317.893ZM257.428 323.899C256.928 324.684 256.429 325.49 255.96 326.316C255.491 327.131 255.053 327.947 254.635 328.763C254.085 327.396 253.616 326.03 253.229 324.705C254.564 324.389 255.97 324.113 257.428 323.899ZM248.204 336.665C244.596 335.125 242.263 333.106 242.263 331.506C242.263 329.905 244.596 327.876 248.204 326.346C249.081 325.969 250.039 325.632 251.027 325.316C251.608 327.315 252.373 329.395 253.32 331.526C252.383 333.647 251.629 335.717 251.058 337.705C250.049 337.389 249.091 337.042 248.204 336.665ZM253.687 351.235C252.301 350.44 251.7 347.412 252.169 343.517C252.281 342.558 252.464 341.549 252.689 340.519C254.686 341.009 256.867 341.386 259.16 341.631C260.536 343.517 261.963 345.23 263.4 346.729C260.077 349.818 256.959 351.511 254.839 351.511C254.38 351.501 253.993 351.409 253.687 351.235ZM277.862 343.466C278.341 347.361 277.75 350.389 276.374 351.195C276.068 351.378 275.671 351.46 275.202 351.46C273.092 351.46 269.963 349.777 266.641 346.708C268.068 345.209 269.494 343.507 270.85 341.62C273.153 341.376 275.334 340.998 277.332 340.499C277.566 341.529 277.75 342.518 277.862 343.466ZM281.786 336.665C280.909 337.042 279.951 337.379 278.962 337.695C278.382 335.696 277.617 333.616 276.669 331.485C277.607 329.364 278.361 327.294 278.932 325.306C279.941 325.622 280.899 325.969 281.796 326.346C285.404 327.886 287.737 329.905 287.737 331.506C287.727 333.106 285.393 335.135 281.786 336.665Z" fill="#61DAFB"/>
<path id="Vector_16" d="M264.99 336.165C267.562 336.165 269.648 334.079 269.648 331.505C269.648 328.932 267.562 326.846 264.99 326.846C262.418 326.846 260.333 328.932 260.333 331.505C260.333 334.079 262.418 336.165 264.99 336.165Z" fill="#61DAFB"/>
</g>
</g>
</g>
<g id="JS">
<g id="logo-javascript">
<path id="Vector_17" d="M253 382H278V407H253V382Z" fill="#F0DB4F"/>
<path id="Vector_18" d="M275.954 401.038C275.771 399.898 275.027 398.94 272.824 398.046C272.059 397.695 271.206 397.443 270.952 396.863C270.861 396.525 270.849 396.335 270.906 396.131C271.07 395.468 271.862 395.261 272.489 395.451C272.893 395.587 273.276 395.898 273.506 396.395C274.585 395.696 274.583 395.701 275.336 395.221C275.06 394.793 274.913 394.596 274.732 394.413C274.084 393.688 273.2 393.315 271.786 393.343C271.541 393.374 271.294 393.407 271.049 393.438C270.343 393.617 269.671 393.987 269.276 394.484C268.093 395.827 268.43 398.177 269.87 399.144C271.289 400.209 273.373 400.451 273.639 401.447C273.898 402.666 272.743 403.061 271.596 402.92C270.75 402.745 270.279 402.314 269.77 401.533C268.834 402.074 268.834 402.074 267.872 402.628C268.1 403.127 268.34 403.353 268.722 403.785C270.533 405.622 275.065 405.532 275.878 402.752C275.911 402.657 276.13 402.02 275.954 401.038ZM266.591 393.491H264.252C264.252 395.511 264.243 397.516 264.243 399.536C264.243 400.822 264.309 402.001 264.1 402.362C263.758 403.072 262.872 402.985 262.468 402.847C262.057 402.645 261.847 402.357 261.605 401.951C261.539 401.834 261.489 401.744 261.472 401.737C260.837 402.124 260.205 402.514 259.571 402.901C259.887 403.55 260.353 404.113 260.949 404.479C261.84 405.014 263.038 405.178 264.29 404.89C265.106 404.653 265.809 404.161 266.177 403.412C266.71 402.431 266.596 401.243 266.591 399.928C266.603 397.785 266.591 395.641 266.591 393.491Z" fill="#323330"/>
</g>
</g>
<path id="Git" d="M179.623 271.11L170.89 262.378C170.771 262.259 170.629 262.164 170.473 262.099C170.316 262.034 170.149 262.001 169.98 262.001C169.811 262.001 169.643 262.034 169.487 262.099C169.331 262.164 169.189 262.259 169.069 262.378L167.256 264.192L169.556 266.492C169.826 266.4 170.117 266.385 170.395 266.45C170.673 266.515 170.928 266.656 171.13 266.858C171.333 267.062 171.474 267.318 171.539 267.598C171.603 267.878 171.587 268.17 171.493 268.442L173.71 270.659C174.246 270.474 174.865 270.593 175.293 271.022C175.435 271.165 175.548 271.334 175.625 271.52C175.702 271.705 175.742 271.905 175.742 272.106C175.742 272.307 175.702 272.507 175.625 272.693C175.548 272.878 175.435 273.047 175.293 273.19C175.043 273.44 174.713 273.597 174.36 273.632C174.008 273.667 173.654 273.578 173.359 273.382C173.064 273.185 172.846 272.893 172.743 272.554C172.639 272.215 172.657 271.85 172.792 271.523L170.725 269.455L170.724 274.896C170.874 274.97 171.011 275.068 171.13 275.186C171.272 275.328 171.385 275.497 171.462 275.683C171.539 275.869 171.579 276.068 171.579 276.269C171.579 276.471 171.539 276.67 171.462 276.856C171.385 277.042 171.272 277.211 171.13 277.353C170.531 277.952 169.56 277.952 168.962 277.353C168.784 277.175 168.652 276.955 168.579 276.713C168.506 276.472 168.493 276.216 168.543 275.968C168.593 275.72 168.703 275.489 168.863 275.294C169.024 275.099 169.23 274.947 169.464 274.851V269.36C169.276 269.283 169.105 269.17 168.962 269.026C168.509 268.573 168.4 267.907 168.632 267.35L166.365 265.083L160.377 271.069C160.258 271.189 160.163 271.331 160.098 271.487C160.033 271.644 160 271.811 160 271.981C160 272.15 160.033 272.317 160.098 272.474C160.163 272.63 160.258 272.772 160.377 272.892L169.11 281.624C169.351 281.865 169.679 282.001 170.02 282.001C170.362 282.001 170.69 281.865 170.931 281.624L179.623 272.932C179.864 272.691 180 272.363 180 272.021C180 271.679 179.864 271.352 179.623 271.11Z" fill="#DE4C36"/>
<g id="Sass">
<g id="sass-1" clip-path="url(#clip1)">
<path id="Vector_19" d="M348.142 332.01C346.713 331.353 345.318 331.12 344.045 331.147C344.016 330.212 343.942 329.372 344.108 328.849C344.304 328.242 344.38 327.85 344.787 327.206C345.194 326.562 346.045 325.776 346.082 325.696C346.108 325.621 346.192 325.233 345.375 324.843C344.558 324.452 343.771 324.289 343.591 324.467C343.411 324.645 343.022 325.064 342.68 325.526C342.188 326.208 339.453 328.162 337.951 329.158C337.925 328.487 337.909 327.897 338.039 327.493C338.235 326.886 338.311 326.494 338.718 325.85C339.125 325.206 339.976 324.42 340.014 324.34C340.039 324.265 340.123 323.877 339.306 323.487C338.489 323.096 337.702 322.933 337.522 323.111C337.343 323.289 337.017 323.758 336.612 324.17C336.214 324.586 332.157 328.086 331.101 329C330.563 329.466 330.113 329.829 329.797 330.069C329.481 330.31 329.778 330.089 329.747 330.114C329.478 330.318 329.328 330.432 329.328 330.432L329.324 330.44C329.119 330.587 328.911 330.723 328.855 330.697C328.815 330.678 328.984 330.107 329.461 329.438C330.473 328.038 332.308 325.974 332.341 325.883C332.36 325.843 332.692 325.484 332.195 324.99C331.713 324.504 331.339 324.766 331.291 324.744C331.244 324.722 331.144 324.83 331.144 324.83C331.144 324.83 333.049 322.431 331.169 321.554C329.99 321.005 327.767 321.529 326.416 322.325C325.777 322.366 324.418 322.45 322.978 322.545C322.428 322.58 321.855 322.623 321.318 322.653L321.275 322.517C320.129 319.025 316.718 315.339 318.416 312.155C319.033 310.998 320.907 308.061 330.29 307.82C337.976 307.622 342.573 310.803 342.557 313.104C342.529 316.388 336.278 319.602 329.456 317.303C326.857 316.431 326.004 314.869 325.845 314.359C325.677 313.825 325.637 313.786 325.476 313.799C325.217 313.814 325.188 314.208 325.175 314.444C325.132 315.035 325.513 316.298 326.659 317.376C327.664 318.32 330.463 319.887 334.599 320.167C339.236 320.477 344.271 317.685 345.016 313.737C345.776 309.717 340.367 305.76 333.803 305.133C329.892 304.764 325.391 304.934 321.638 306.161C317.179 307.612 315.504 309.915 315.221 311.063C314.196 315.153 318.226 320.009 319.454 322.783C319.324 322.79 319.202 322.801 319.092 322.808C317.819 322.835 312.914 323.06 310.909 324.782C308.642 326.731 309.104 329.109 309.853 329.749C312.168 331.731 315.513 331.671 318.008 330.167C320.495 328.66 321.646 325.735 321.574 324.121L321.572 324.062L322.608 323.963C323.278 323.897 323.93 323.852 324.499 323.816C323.921 324.391 323.355 325.126 322.703 326.276C321.937 327.626 321.664 329.709 322.086 330.779C322.276 331.246 322.671 331.44 322.918 331.555C323.794 331.963 324.53 331.424 325.373 330.76C326.409 329.953 327.459 328.95 327.459 328.95C327.459 328.95 325.312 331.993 326.945 332.754C327.543 333.033 328.5 332.539 328.957 332.267L328.953 332.275C328.953 332.275 328.98 332.258 329.038 332.217C329.095 332.183 329.15 332.148 329.204 332.111L329.212 332.095C329.644 331.792 330.62 331.093 332.148 329.895C334.119 328.351 336.288 326.278 336.288 326.278C336.288 326.278 336.094 326.944 335.913 328.101C335.806 328.788 335.88 329.628 335.874 330.41C335.479 330.634 335.246 330.758 335.246 330.758L335.25 330.77C334.94 330.935 334.599 331.106 334.25 331.273C332.984 331.866 331.496 332.52 331.22 332.779C330.894 333.083 330.796 333.376 330.987 333.737C331.127 333.997 331.495 334.207 331.916 334.364C332.671 334.658 333.266 334.713 333.573 334.72C334.038 334.762 334.593 334.759 335.179 334.645C336.251 334.427 337.127 333.817 337.599 332.68C337.861 332.055 337.944 331.357 337.965 330.668C338.085 330.598 338.205 330.528 338.328 330.45C340.445 329.197 342.36 327.626 342.36 327.626C342.36 327.626 342.166 328.292 341.985 329.449C341.895 330.038 341.934 330.745 341.945 331.428C340.317 331.843 339.056 332.612 338.459 333.226C337.358 334.361 337.438 335.145 338.064 335.612C338.345 335.821 338.858 335.885 339.26 335.898C339.737 335.956 340.347 335.958 340.968 335.831C342.04 335.613 343.187 335.15 343.663 334.024C343.877 333.503 343.976 332.938 344.016 332.375C345.212 332.428 346.622 332.795 348.178 333.763C351.53 335.83 351.198 338.371 350.632 339.232C350.066 340.093 349.087 340.257 348.766 340.302C348.448 340.338 348.343 340.356 348.315 340.479C348.268 340.661 348.384 340.705 348.614 340.774C348.931 340.863 350.83 340.886 351.689 339.211C352.806 337.065 351.841 333.706 348.142 332.01ZM316.507 328.478C314.738 329.215 312.862 328.932 312.354 328.191C311.802 327.4 312.977 325.649 315.054 324.959C316.317 324.54 317.812 324.306 318.78 324.185C318.996 324.16 319.321 324.127 319.709 324.085C319.772 324.076 319.811 324.074 319.811 324.074C319.882 324.069 319.964 324.058 320.046 324.048C319.674 326.241 318.369 327.708 316.507 328.478ZM327.785 326.648C326.914 327.455 324.862 329.61 324.411 329.226C324.02 328.898 324.652 326.836 326.173 325.218C326.941 324.402 328.153 323.571 328.759 323.311C329.739 322.895 330.551 322.983 330.589 323.359C330.618 323.838 328.33 326.146 327.785 326.648ZM333.276 333.32C333.059 333.326 332.87 333.316 332.821 333.235C332.78 333.177 332.963 333.117 332.963 333.117C332.963 333.117 334.289 332.581 334.844 332.306C335.162 332.144 335.539 331.961 335.949 331.745L335.905 331.841C335.37 332.988 333.914 333.24 333.276 333.32ZM339.303 334.618C339.221 334.463 339.374 334.176 340.235 333.453C340.573 333.164 341.241 332.729 342.174 332.456C342.142 332.732 342.082 332.985 341.974 333.197C341.297 334.627 340.029 334.685 339.303 334.618Z" fill="#CF649A"/>
</g>
</g>
<g id="Gsap">
<g id="gsap-greensock">
<path id="Vector_20" d="M146.391 383.412C145.071 384.033 141.578 386.827 140.906 387.655C140.207 388.483 140 387.19 140.725 385.042C141.294 383.309 142.743 380.954 145.175 378.936C146.598 377.772 149.728 376.09 151.643 375.107C152.031 374.9 157.051 372.778 161.527 371.718C161.915 371.614 161.061 372.364 160.932 372.778C160.259 374.745 146.831 383.179 146.831 383.179L146.391 383.412ZM165.304 407.138C165.537 408.535 165.33 408.639 163.881 408.82C162.432 409.001 161.371 408.457 160.983 408.095C160.595 407.733 160.518 406.931 160.906 406.207C161.139 405.741 161.372 405.586 161.501 405.016C161.63 404.473 161.734 404.344 161.837 404.137C161.941 403.955 161.967 403.774 161.992 402.507C162.018 401.239 161.992 398.858 162.122 397.85C162.251 396.815 166.727 398.315 166.727 398.315C166.727 398.315 165.666 400.954 165.382 401.601C165.097 402.248 165.123 403.49 165.123 403.749C165.123 404.007 165.02 404.525 164.942 404.551C164.864 404.576 165.201 405.249 165.045 405.637C164.942 406 165.278 406.931 165.304 407.138ZM167.012 367.578C166.856 366.595 167.012 364.654 167.219 364.344C167.866 363.464 171.281 363.36 172.005 364.395C172.316 364.861 172.29 365.948 172.238 366.646C172.187 367.345 172.005 368.846 171.979 369.337C171.954 369.699 168.202 370.269 167.374 369.285C167.141 369.027 167.012 367.578 167.012 367.578ZM174.619 404.628C176.197 405.767 177.413 405.974 178.215 406.388C179.017 406.802 178.81 407.604 177.465 407.837C176.378 408.043 174.67 407.63 173.532 407.63C172.393 407.63 169.858 407.759 169.185 407.293C168.409 406.75 168.745 405.741 168.745 405.741C168.952 405.172 169.47 403.904 169.314 402.869C169.159 401.834 168.952 401.265 168.564 400.307C168.176 399.35 167.891 396.996 168.254 396.866C168.616 396.737 168.512 396.866 168.978 396.97C169.444 397.073 169.961 397.229 170.97 397.229C171.979 397.229 173.092 397.073 173.48 396.996C173.868 396.918 174.179 396.84 174.049 397.642C173.92 398.445 173.532 399.945 173.506 401.109C173.48 402.274 173.48 403.619 173.558 403.852C173.635 404.085 174.205 404.344 174.619 404.628Z" fill="#010101"/>
<path id="Vector_21" d="M169.081 370.165C166.235 372.623 160.724 373.296 152.549 376.452C150.453 377.254 144.864 379.66 143.519 382.17C148.047 379.557 149.728 383.153 150.091 386.853C150.427 390.32 152.16 392.131 156.611 392.028C161.19 391.924 162.587 394.589 163.855 397.72C166.313 385.741 170.246 383.412 172.781 381.368C178.163 376.995 171.539 369.285 169.081 370.165Z" fill="#8AC640"/>
<path id="Vector_22" d="M169.082 370.165C162.251 372.545 155.498 373.14 147.555 378.031C145.667 379.195 141.682 381.834 140.906 386.879C143.803 383.671 150.505 379.635 158.706 377.073C162.846 375.78 165.873 374.926 169.547 373.503C169.289 371.847 169.289 371.2 169.082 370.165Z" fill="#8AC640"/>
<path id="Vector_23" d="M177.801 384.343C177.801 384.343 177.309 386.025 176.326 386.568C176.326 386.568 175.602 386.827 174.153 386.025C173.739 385.792 173.428 384.99 173.454 384.731C173.48 384.11 173.868 383.826 173.868 383.826C173.868 383.826 174.282 383.127 174.774 383.153C175.265 383.179 176.093 383.256 176.352 383.023C176.585 382.765 177.853 383.489 177.801 384.343ZM167.245 368.069C167.245 368.069 167.141 369.388 166.96 370.216C166.934 370.371 166.158 370.449 165.589 370.682C166.675 373.787 173.221 373.761 174.075 372.234C173.661 371.95 172.833 371.51 172.445 371.355C172.057 371.199 172.083 371.225 172.057 370.501C172.031 369.776 171.979 368.431 171.928 368.069C171.876 367.706 167.865 367.706 167.245 368.069Z" fill="#010101"/>
<path id="Vector_24" d="M167.503 368.069C167.503 368.069 167.503 368.819 167.425 369.544C167.4 369.88 167.374 370.087 167.322 370.346C167.296 370.501 168.202 371.122 168.46 372.493C169.702 375.262 172.574 373.89 173.765 372.571C173.351 372.286 172.678 371.898 171.902 371.588C171.514 371.432 171.695 371.096 171.669 370.372C171.643 369.647 171.539 368.586 171.488 368.198C171.436 367.81 168.124 367.707 167.503 368.069Z" fill="#F0EFEF"/>
<g id="Group_2">
<path id="Vector_25" d="M167.244 368.07C167.244 368.07 167.218 368.535 167.141 369.079C167.477 369.415 167.917 369.881 168.253 370.165C168.486 370.372 169.055 370.346 169.573 370.346C170.039 370.346 170.453 370.398 170.634 370.295C171.048 370.088 171.643 369.57 171.979 369.182C171.953 368.716 171.928 368.277 171.902 368.07C171.876 367.707 167.865 367.707 167.244 368.07Z" fill="#010101"/>
<path id="Vector_26" d="M169.599 370.036C169.288 370.036 168.926 370.01 168.642 369.958C168.512 369.932 168.383 369.855 168.279 369.803C168.098 369.674 167.917 369.519 167.71 369.363C167.296 369.053 167.27 368.872 167.27 368.794C167.451 367.164 167.218 365.793 167.218 365.793C167.218 365.793 167.037 365.094 168.02 364.913C169.004 364.732 169.599 364.706 169.599 364.706C169.599 364.706 170.22 364.706 171.177 364.913C172.16 365.094 171.979 365.793 171.979 365.793C171.979 365.793 171.746 367.164 171.927 368.794C171.927 368.872 171.902 369.053 171.487 369.363C171.125 369.622 170.841 369.906 170.556 369.958C170.271 370.01 169.909 370.036 169.599 370.036Z" fill="#010101"/>
<path id="Vector_27" d="M169.599 364.033C167.891 364.033 167.555 364.499 167.063 365.016C166.96 365.146 167.037 365.922 167.219 367.578H167.451C167.451 367.578 167.296 367.112 167.322 366.569C167.348 366.025 167.451 366.051 167.374 365.922C167.27 365.767 167.063 365.508 167.529 365.249C167.995 364.99 168.719 365.456 169.599 365.482C170.478 365.456 171.229 364.99 171.694 365.249C172.16 365.508 171.953 365.767 171.85 365.922C171.746 366.077 171.876 366.025 171.902 366.569C171.927 367.112 171.772 367.578 171.772 367.578H172.005C172.16 365.922 172.264 365.198 172.186 365.068C171.746 364.499 171.306 364.059 169.599 364.033ZM177.801 384.421C177.801 384.421 177.309 386 176.352 386.543C176.145 386.439 176.171 386.284 175.989 386.051C175.938 385.974 175.756 385.922 175.679 385.844C175.601 385.767 175.627 385.637 175.498 385.534C175.394 385.43 175.317 385.508 175.213 385.43C175.11 385.327 175.084 385.198 175.006 385.12C174.954 385.068 174.748 385.042 174.696 384.991C174.566 384.861 173.428 384.628 173.48 384.37C173.583 383.981 173.79 383.697 173.79 383.697C173.79 383.697 174.282 382.972 174.773 382.998C175.265 383.024 175.731 383.128 175.989 382.895C176.274 382.636 177.878 383.593 177.801 384.421Z" fill="#010101"/>
<path id="Vector_28" d="M174.437 372.985C174.437 372.985 176.067 372.597 177.18 373.658C178.293 374.745 178.215 376.09 177.879 376.918C178.163 377.254 178.681 378.186 178.293 379.298C180 380.747 179.25 382.972 177.723 384.447C177.723 384.447 177.361 383.102 175.912 383.024C175.964 382.507 174.567 382.093 175.214 380.747C174.23 380.514 174.256 379.842 174.101 379.014C173.972 378.186 174.437 372.985 174.437 372.985Z" fill="#010101"/>
</g>
<path id="Vector_29" d="M173.842 373.709C173.842 373.709 175.731 372.752 176.843 373.838C177.956 374.925 177.645 376.115 177.309 376.943C177.594 377.279 178.266 378.237 177.852 379.375C177.775 379.634 177.205 379.634 176.791 380.307C177.826 379.711 178.473 379.867 178.706 380.617C179.068 381.781 178.266 383.178 177.568 383.955C177.568 383.929 177.542 383.903 177.542 383.877C177.438 384.265 177.309 385.015 176.533 385.843C176.145 386.257 175.834 386.206 175.394 386.102C174.877 385.973 174.696 385.74 173.971 385.352C173.557 385.119 173.79 384.834 173.79 384.601C173.79 384.55 173.842 384.472 173.92 384.369C173.971 384.239 174.126 384.032 174.359 383.799C174.359 383.799 174.696 383.334 175.187 383.359C175.679 383.385 176.196 383.282 176.326 383.153C176.326 382.247 175.291 382.221 175.653 380.669C175.679 380.591 175.808 380.462 176.222 380.41C175.601 380.281 175.317 380.255 174.877 379.841C174.566 379.556 174.334 379.194 174.256 378.728C174.101 377.926 173.842 373.709 173.842 373.709Z" fill="#F0EFEF"/>
<path id="Vector_30" d="M168.383 372.079C168.228 371.872 167.426 370.838 165.899 370.424C165.459 370.294 165.175 370.656 164.735 370.915C164.605 370.838 164.036 370.579 163.726 370.76C163.415 370.941 163.208 371.122 162.898 371.251C162.742 371.174 162.329 371.174 161.992 371.303C161.656 371.407 161.138 371.639 160.647 372.312C160.336 373.425 166.132 372.597 166.132 372.597L168.383 372.079Z" fill="#010101"/>
<path id="side-left" d="M168.435 372.079C167.607 371.795 167.736 370.838 165.899 370.682C165.537 370.656 165.304 370.941 165.045 371.122C165.175 371.252 165.304 371.458 165.382 371.665C165.149 371.407 164.735 371.07 164.321 370.993C163.933 370.915 163.674 371.2 163.26 371.407C163.337 371.484 163.415 371.614 163.519 371.769C163.156 371.536 162.898 371.459 162.406 371.64C162.07 371.743 161.423 372.028 160.931 372.726C160.621 373.839 166.158 372.597 166.158 372.597L168.435 372.079Z" fill="#8AC640"/>
<path id="Vector_31" d="M173.299 372.494C173.299 372.494 173.299 372.209 173.273 371.951C173.273 371.899 173.066 371.77 173.066 371.718L173.014 371.666C173.014 371.666 173.428 371.433 173.739 371.563C174.075 371.666 174.256 372.106 174.256 372.106C174.851 371.899 174.903 372.132 175.188 372.442C175.809 372.313 175.886 372.546 176.274 373.115C176.274 373.115 175.809 373.037 174.903 373.192C174.023 373.322 173.299 372.468 173.299 372.494Z" fill="#010101"/>
<path id="Vector_32" d="M173.195 372.363C173.195 372.363 173.351 372.234 173.299 372.208C173.583 372.053 173.972 371.872 174.153 372.363C174.748 372.156 174.825 372.441 175.11 372.751C175.834 372.415 175.886 372.829 175.938 373.01C175.705 373.01 175.369 373.036 174.903 373.088C174.023 373.217 173.169 372.337 173.195 372.363Z" fill="#8AC640"/>
<path id="Vector_33" d="M164.398 371.718C164.398 371.718 165.873 372.235 167.115 372.158C168.357 372.054 170.479 371.951 171.617 372.623C171.617 372.623 172.781 372.209 173.868 372.494C174.955 372.778 176.947 374.641 176.352 376.608C176.3 376.737 175.964 376.944 175.576 377.074C175.576 377.074 175.783 377.953 175.42 378.678C175.058 379.376 174.256 380.722 174.23 382.584C174.204 382.895 174.153 383.542 174.101 383.852C172.083 383.775 168.978 383.024 165.925 383.076C165.951 382.74 165.977 382.533 166.003 382.196H166.08C165.925 381.343 165.873 380.903 165.718 380.256C164.735 379.635 163.7 378.911 162.82 377.539C161.966 376.168 164.398 371.718 164.398 371.718ZM174.385 385.689C174.385 385.689 175.99 391.433 174.101 393.84C174.101 393.84 174.385 394.952 173.739 396.142C173.635 396.66 173.506 397.125 173.428 397.643C173.092 399.79 172.523 400.696 172.367 404.137L170.815 404.111C170.815 404.111 170.634 401.627 170.09 400.308C169.78 399.558 168.564 398.548 168.616 397.539C168.667 396.763 168.823 396.116 170.142 395.081C170.246 393.581 168.745 392.158 168.978 386.569L174.385 385.689Z" fill="#010101"/>
<path id="Vector_34" d="M173.92 385.456C174.334 388.095 175.291 392.002 173.557 393.917C173.66 394.402 173.668 394.903 173.583 395.392C173.531 395.702 173.428 396.038 173.299 396.401C173.04 397.022 172.936 397.927 172.859 398.47C172.522 400.618 172.522 400.722 172.367 404.163L170.815 404.137C170.815 404.137 170.634 401.653 170.09 400.333C169.78 399.583 169.133 398.936 169.081 397.927C169.03 397.151 169.573 395.599 170.867 395.65C170.789 392.52 169.34 393.141 168.952 386.621L173.92 385.456ZM164.398 371.718C164.398 371.718 164.968 371.899 165.588 371.951C166.209 372.002 166.882 371.951 167.477 371.925C168.719 371.821 170.478 371.692 171.643 372.365C171.643 372.365 172.29 372.158 172.988 372.209C173.299 372.235 173.609 372.494 173.971 372.597C175.11 372.882 176.196 374.771 175.705 376.478C175.653 376.608 175.291 376.478 174.877 376.608C174.954 376.97 175.006 377.798 174.592 378.678C174.152 379.557 173.583 380.696 173.687 382.869C170.97 382.74 169.754 382.559 167.063 382.429C166.83 381.472 166.675 380.515 166.649 380.023C167.011 379.842 167.218 379.687 167.503 379.376C166.727 379.506 166.416 379.454 165.95 379.195C165.485 378.936 164.657 378.109 164.243 377.565C164.191 377.513 163.907 378.367 163.26 378.393C163.027 378.057 164.01 377.099 163.829 376.737C163.182 375.418 164.398 371.718 164.398 371.718Z" fill="#F0EFEF"/>
<path id="Vector_35" d="M174.127 383.308C174.127 383.308 174.178 384.239 174.178 384.472C174.178 384.731 174.385 385.507 174.411 385.869C174.127 386.361 172.885 387.473 170.634 387.887C168.409 388.353 165.459 384.86 165.459 384.86C165.537 384.524 165.796 383.541 165.977 383.023C166.003 382.972 166.054 382.842 166.054 382.79C166.287 382.454 174.127 383.308 174.127 383.308Z" fill="#010101"/>
<path id="Vector_36" d="M173.558 383.386C173.558 384.033 173.661 384.499 173.739 384.913C173.868 385.663 174.075 386.155 174.075 386.646C174.075 388.147 172.109 387.888 170.453 387.94C168.228 388.406 166.339 384.913 166.339 384.913C166.494 384.318 166.598 383.645 166.83 383.076C166.856 382.765 166.908 382.377 166.934 382.196C170.09 382.196 172.315 382.377 173.609 382.507C173.661 382.791 173.609 383.283 173.558 383.386Z" fill="#F0EFEF"/>
<path id="Vector_37" d="M171.074 386.723C171.074 386.723 169.703 383.67 165.589 384.576C164.606 387.344 163.286 390.527 164.14 393.968C163.286 395.132 162.303 395.779 162.303 397.927C162.303 400.074 162.406 400.436 162.406 400.436L165.433 400.592C165.433 400.592 166.417 399.324 166.805 397.953C166.908 397.564 167.012 396.866 166.934 396.064C167.037 395.909 167.477 395.547 167.529 394.848C167.529 394.848 169.004 394.072 169.858 392.183C170.66 390.475 170.453 389 171.074 386.723Z" fill="#010101"/>
<path id="Vector_38" d="M171.074 386.723C170.996 386.439 169.961 383.644 166.132 384.472C163.881 390.475 164.709 392.959 165.045 394.045C163.519 395.986 162.82 396.4 163.131 400.332H165.149C166.08 398.858 166.287 398.314 166.339 396.374C166.339 396.296 166.054 396.529 165.847 396.788C166.003 395.986 166.443 395.83 166.779 395.339C166.934 395.132 167.063 394.821 167.063 394.407C168.875 393.191 169.547 391.665 169.935 390.087C170.246 389 170.608 387.215 171.074 386.723Z" fill="#F0EFEF"/>
<g id="Group_3">
<path id="Vector_39" d="M164.683 382.558C164.683 382.558 165.382 382.583 166.003 382.79C166.598 382.997 166.598 383.127 166.831 383.386C167.063 383.644 167.633 384.032 167.529 384.42C167.477 384.627 167.348 384.679 167.167 384.86C167.089 384.938 166.52 385.559 166.391 385.636C166.313 385.688 166.21 385.766 166.132 385.818L165.744 386.076C165.485 386.206 165.304 386.283 165.019 386.257C165.019 386.257 164.373 386.232 163.959 385.792C163.959 385.792 163.907 385.585 164.01 385.481C164.01 385.481 163.467 385.016 163.312 384.705C163.156 384.395 163.156 383.955 163.26 383.722C163.312 383.489 164.321 382.842 164.683 382.558ZM165.33 407.732L165.252 408.379C165.252 408.379 165.019 408.664 163.286 408.638C161.527 408.612 161.061 408.069 160.906 407.784L160.802 407.111C160.802 407.111 161.139 406.62 161.216 406.62C161.785 406.671 163.726 407.448 165.071 407.655C165.2 407.655 165.226 407.706 165.33 407.732ZM169.081 406.413C169.081 406.697 169.056 406.697 169.056 406.982C169.366 407.215 170.142 407.344 171.617 407.318C173.765 407.266 175.757 407.965 178.189 407.551L178.215 407.085L177.982 407.059L169.366 406.361L169.081 406.413Z" fill="#010101"/>
<path id="Vector_40" d="M170.97 407.318H171.617C173.014 407.266 174.334 407.577 175.757 407.655C176.507 407.629 177.438 407.448 177.361 406.904L170.013 406.283C169.573 406.775 169.909 407.189 170.97 407.318ZM162.535 396.426C162.768 396.581 164.347 397.512 166.908 397.383C166.856 397.874 166.882 398.832 165.744 400.513C165.174 401.341 164.683 402.79 164.579 404.627C164.605 405.041 164.838 405.404 164.528 405.947C164.631 406.283 165.045 406.956 165.252 407.37C165.459 407.784 165.563 408.25 164.191 408.276C162.794 408.301 160.543 408.146 160.854 407.06C161.009 406.49 161.449 405.895 161.501 405.662C161.552 405.429 161.552 404.731 161.992 404.265C162.38 402.972 162.251 401.73 162.173 400.565C162.044 399.349 162.018 397.409 162.535 396.426ZM164.942 375.339C166.779 372.881 165.226 370.915 162.277 371.51C161.087 371.742 159.896 372.57 159.819 374.071C159.431 374.123 158.551 374.174 158.111 375.779C157.775 377.02 157.594 377.253 156.999 377.874C156.61 378.314 157.024 379.22 157.309 379.867C158.266 382.092 161.216 382.299 163.208 383.98C163.881 383.799 164.579 383.049 164.786 382.557C163.105 380.565 163.467 379.789 162.794 378.754C163.519 378.495 165.174 377.486 164.942 375.339Z" fill="#010101"/>
</g>
<path id="Vector_41" d="M164.58 375.184C164.683 375.029 164.864 374.693 164.942 374.563C164.968 374.537 165.252 375.029 165.278 375.003C165.977 373.864 166.158 372.209 165.356 372.053C165.175 372.027 164.838 371.95 164.554 371.846C164.036 371.665 163.571 371.665 162.743 371.821C161.604 372.027 160.466 372.855 160.466 374.046C160.466 374.123 161.268 374.356 161.501 375.313C161.112 374.77 160.44 374.175 159.638 374.692C158.784 375.236 159.224 376.478 158.085 377.771C157.697 378.211 157.749 378.729 158.163 379.763C158.835 381.394 162.018 382.273 163.751 383.826C164.165 383.644 164.45 383.23 164.657 382.92C163.493 381.704 163.027 380.565 162.691 379.738C162.277 378.78 161.811 378.237 160.905 377.512C161.371 377.693 161.733 377.875 161.94 378.03C162.173 378.185 162.509 378.211 162.82 378.107C163.933 377.72 164.528 376.167 164.58 375.184Z" fill="#F0EFEF"/>
<path id="Vector_42" d="M175.834 375.598C175.757 376.582 175.032 376.09 174.644 375.909C173.868 375.573 173.092 375.34 172.186 375.34C171.281 375.34 170.116 375.417 169.107 375.676C167.71 376.064 167.296 376.038 166.675 375.728C166.054 375.391 164.968 374.563 164.968 374.563C164.968 374.563 164.942 374.822 165.201 375.159C165.537 375.573 166.287 376.09 167.296 376.426C167.788 376.582 168.176 376.478 168.616 376.375C170.919 375.805 173.351 375.702 175.395 376.944C175.498 376.996 175.86 376.84 176.016 376.607C176.222 376.271 175.834 375.598 175.834 375.598Z" fill="#010101"/>
<path id="Vector_43" d="M164.062 385.456C164.269 385.585 164.528 385.663 164.812 385.896C164.812 385.896 164.579 385.896 164.476 385.793C164.347 385.715 164.088 385.482 164.062 385.456Z" fill="#0A1825"/>
<path id="Vector_44" d="M171.539 364.939C171.462 364.706 170.893 364.292 169.573 364.292C168.15 364.292 167.736 364.732 167.71 364.965C167.71 365.042 167.607 365.87 167.581 366.207C167.581 366.207 167.581 366.621 167.607 367.242C167.633 367.655 167.736 367.888 167.788 368.432C167.839 369.001 167.995 369.363 168.279 369.829C168.409 369.906 168.512 369.984 168.642 370.01C169.159 370.113 170.065 370.139 170.556 370.01C170.841 369.932 171.203 369.441 171.281 369.001C171.384 368.458 171.488 368.069 171.514 367.733C171.565 367.397 171.591 366.647 171.617 366.439C171.695 365.87 171.565 364.991 171.539 364.939Z" fill="#F0EFEF"/>
<path id="Vector_45" d="M168.823 396.918C168.823 396.918 170.194 397.513 173.584 396.996C173.584 396.996 172.626 401.808 173.066 404.214C173.066 404.214 173.506 404.835 176.766 406.025C176.766 406.025 178.215 406.387 178.163 407.112C178.163 407.112 178.215 407.267 176.456 407.215C174.696 407.163 173.04 406.853 171.876 406.853C170.712 406.853 169.47 406.905 169.263 406.568C169.03 406.258 169.315 405.456 169.651 404.99C170.013 404.499 169.91 404.136 169.884 403.257C169.806 400.954 168.047 398.574 168.823 396.918Z" fill="#010101"/>
<path id="Vector_46" d="M168.538 397.358C168.357 397.617 168.564 398.6 168.823 399.557C169.082 400.514 169.651 401.084 169.78 402.662C169.909 404.214 169.935 404.421 169.495 405.327C169.056 406.232 168.926 407.06 170.453 407.086C171.979 407.112 172.807 407.06 174.36 407.293C175.912 407.526 176.455 407.603 177.309 407.474C178.163 407.345 178.344 407.06 177.982 406.801C177.62 406.543 176.119 406.258 175.472 405.741C174.851 405.275 173.092 404.499 173.066 404.292C172.989 403.593 172.963 401.058 173.092 400.23C173.221 399.402 173.402 398.212 173.454 397.901C173.506 397.591 173.765 397.28 173.325 397.384C172.885 397.487 171.229 397.72 169.987 397.642C168.745 397.565 168.616 397.28 168.538 397.358Z" fill="#8AC640"/>
<path id="Vector_47" opacity="0.3" d="M169.418 405.353C169.858 405.56 170.505 405.715 170.996 405.715C170.996 405.715 170.815 406.569 171.1 407.086C171.384 407.604 169.03 407.293 169.03 407.293L168.926 405.456L169.418 405.353ZM176.274 407.578C176.688 407.448 176.973 406.983 176.637 406.543C176.274 406.103 175.964 406.025 176.43 406C176.895 405.974 178.603 407.009 178.603 407.009L177.723 407.811L176.274 407.578ZM168.461 398.367C169.056 398.574 169.961 398.625 170.738 398.6C171.514 398.574 172.678 398.47 173.428 398.211C174.179 397.953 173.868 398.496 173.868 398.496L173.454 398.884C173.454 398.884 172.471 399.272 170.867 399.246C168.978 399.221 168.409 399.014 168.409 399.014L168.461 398.367ZM168.512 399.66C169.108 399.868 170.013 399.919 170.789 399.893C171.565 399.868 172.6 399.868 173.351 399.583C173.661 399.479 173.48 399.919 173.48 399.919L173.351 400.152C173.351 400.152 172.342 400.514 170.763 400.488C168.875 400.462 168.538 400.307 168.538 400.307L168.512 399.66Z" fill="#010101"/>
<g id="Vector_48">
<mask id="path-59-outside-1" maskUnits="userSpaceOnUse" x="166.322" y="370.199" width="9" height="3" fill="black">
<rect fill="white" x="166.322" y="370.199" width="9" height="3"/>
<path d="M167.374 371.199C168.228 371.561 169.883 371.95 170.349 372.053C170.815 372.157 171.565 371.691 171.927 371.458C172.574 371.044 173.402 371.38 173.79 371.82C174.049 372.105 174.153 372.286 174.153 372.364C174.153 372.467 173.842 372.364 173.842 372.364C173.661 372.286 173.454 372.26 173.299 372.156C173.092 372.053 172.885 371.898 172.574 371.924C171.281 372.079 171.022 372.519 169.909 372.26C168.797 372.001 168.512 371.768 167.322 371.846"/>
</mask>
<path d="M167.374 371.199C168.228 371.561 169.883 371.95 170.349 372.053C170.815 372.157 171.565 371.691 171.927 371.458C172.574 371.044 173.402 371.38 173.79 371.82C174.049 372.105 174.153 372.286 174.153 372.364C174.153 372.467 173.842 372.364 173.842 372.364C173.661 372.286 173.454 372.26 173.299 372.156C173.092 372.053 172.885 371.898 172.574 371.924C171.281 372.079 171.022 372.519 169.909 372.26C168.797 372.001 168.512 371.768 167.322 371.846" fill="#8AC640"/>
<path d="M171.927 371.458L171.82 371.29L171.819 371.29L171.927 371.458ZM173.79 371.82L173.64 371.953L173.642 371.955L173.79 371.82ZM173.842 372.364L173.763 372.547L173.771 372.551L173.779 372.553L173.842 372.364ZM173.299 372.156L173.41 371.99L173.4 371.983L173.388 371.978L173.299 372.156ZM172.574 371.924L172.558 371.724L172.551 371.725L172.574 371.924ZM167.296 371.383C168.169 371.754 169.844 372.146 170.306 372.248L170.393 371.858C169.923 371.753 168.286 371.369 167.452 371.015L167.296 371.383ZM170.306 372.248C170.462 372.283 170.629 372.268 170.786 372.231C170.945 372.195 171.107 372.133 171.26 372.064C171.565 371.925 171.854 371.743 172.036 371.626L171.819 371.29C171.639 371.406 171.371 371.573 171.094 371.7C170.956 371.763 170.82 371.813 170.696 371.842C170.57 371.871 170.469 371.875 170.393 371.858L170.306 372.248ZM172.035 371.626C172.301 371.456 172.61 371.436 172.906 371.512C173.204 371.59 173.473 371.763 173.64 371.953L173.94 371.688C173.719 371.438 173.38 371.222 173.006 371.125C172.629 371.027 172.2 371.046 171.82 371.29L172.035 371.626ZM173.642 371.955C173.767 372.092 173.85 372.2 173.9 372.278C173.925 372.317 173.94 372.345 173.948 372.364C173.958 372.386 173.953 372.383 173.953 372.364H174.353C174.353 372.305 174.335 372.25 174.316 372.208C174.297 372.162 174.27 372.113 174.237 372.061C174.17 371.958 174.072 371.833 173.938 371.686L173.642 371.955ZM173.953 372.364C173.953 372.344 173.956 372.321 173.968 372.297C173.979 372.272 173.995 372.253 174.011 372.239C174.041 372.215 174.069 372.21 174.071 372.21C174.076 372.209 174.075 372.21 174.065 372.209C174.057 372.209 174.045 372.207 174.03 372.205C174.001 372.2 173.97 372.192 173.944 372.185C173.932 372.182 173.922 372.179 173.915 372.177C173.911 372.176 173.909 372.175 173.907 372.174C173.906 372.174 173.906 372.174 173.905 372.174C173.905 372.174 173.905 372.174 173.905 372.174C173.905 372.174 173.905 372.174 173.905 372.174C173.905 372.174 173.905 372.174 173.905 372.174C173.905 372.174 173.905 372.174 173.905 372.174C173.905 372.174 173.905 372.174 173.842 372.364C173.779 372.553 173.779 372.553 173.779 372.553C173.779 372.553 173.779 372.553 173.779 372.553C173.779 372.553 173.779 372.553 173.779 372.553C173.779 372.553 173.779 372.553 173.78 372.553C173.78 372.554 173.78 372.554 173.781 372.554C173.782 372.554 173.783 372.555 173.784 372.555C173.787 372.556 173.791 372.557 173.796 372.559C173.806 372.562 173.82 372.566 173.837 372.571C173.87 372.58 173.916 372.592 173.965 372.6C174.008 372.607 174.074 372.615 174.137 372.604C174.169 372.599 174.22 372.586 174.267 372.547C174.323 372.501 174.353 372.434 174.353 372.364H173.953ZM173.921 372.18C173.818 372.135 173.703 372.105 173.62 372.079C173.528 372.05 173.462 372.025 173.41 371.99L173.188 372.323C173.291 372.392 173.405 372.431 173.501 372.461C173.606 372.493 173.685 372.514 173.763 372.547L173.921 372.18ZM173.388 371.978C173.217 371.892 172.94 371.693 172.558 371.724L172.591 372.123C172.829 372.103 172.966 372.214 173.21 372.335L173.388 371.978ZM172.551 371.725C171.885 371.805 171.471 371.961 171.123 372.054C170.783 372.144 170.474 372.186 169.955 372.065L169.864 372.455C170.458 372.593 170.834 372.544 171.225 372.44C171.608 372.339 171.97 372.198 172.598 372.122L172.551 371.725ZM169.955 372.065C168.877 371.815 168.539 371.566 167.309 371.646L167.335 372.045C168.486 371.971 168.717 372.188 169.864 372.455L169.955 372.065Z" fill="black" mask="url(#path-59-outside-1)"/>
</g>
<path id="Vector_49" d="M166.805 381.523C166.805 381.705 168.823 382.714 169.935 382.921C171.048 383.127 173.377 382.921 173.739 382.843L173.687 383.205C173.687 383.205 170.919 383.619 168.797 383.05C166.675 382.481 166.908 382.351 166.908 382.351L166.805 381.523Z" fill="#010101"/>
<path id="Vector_50" d="M162.484 403.593C162.794 403.749 163.907 404.033 164.631 403.878C164.735 403.852 164.631 402.093 164.916 401.291C165.33 400.178 166.003 399.272 166.313 397.306C165.226 397.203 163.984 396.918 163.337 396.711C162.51 399.247 162.794 401.42 162.484 403.593ZM164.217 405.223C164.398 405.275 164.528 405.482 164.58 405.353C164.683 405.12 164.398 404.68 164.373 404.37V404.344C164.14 404.137 162.561 404.111 162.665 404.214C162.484 404.551 162.199 404.499 162.096 405.172C162.044 405.508 162.458 405.223 162.846 405.197C162.148 405.663 161.346 406.258 161.216 406.776C161.061 407.5 161.32 407.707 162.096 408.095C162.769 408.251 163.571 408.277 164.192 408.251C164.89 408.121 165.02 407.785 164.813 407.319C164.502 406.621 164.295 405.715 164.217 405.223Z" fill="#F0EFEF"/>
<path id="Vector_51" d="M164.502 371.613C165.356 372.105 166.546 371.976 166.986 371.95C167.089 371.95 168.124 371.769 168.176 371.794C168.279 371.82 168.279 371.898 168.279 371.898C168.279 371.898 167.891 372.105 167.012 372.156C166.184 372.208 165.2 372.156 164.657 371.898C164.01 371.613 164.502 371.613 164.502 371.613ZM173.299 372.105C173.454 372.208 174.463 372.596 174.903 373.062C175.291 373.476 175.084 373.45 175.006 373.347C174.903 373.217 174.101 372.674 173.79 372.545C173.48 372.415 173.092 372.182 173.092 372.131C173.092 372.079 173.299 372.105 173.299 372.105Z" fill="#010101"/>
<path id="Vector_52" d="M164.372 382.843C165.123 382.792 165.899 382.973 166.391 383.49C166.649 383.749 167.063 384.034 167.012 384.292C167.012 384.37 166.856 384.577 166.727 384.732C166.649 384.836 166.417 385.068 166.339 385.146C166.235 385.224 165.873 385.508 165.796 385.56C165.718 385.612 165.614 385.741 165.537 385.767C165.278 385.897 164.993 385.793 164.735 385.664C164.476 385.534 164.787 385.508 164.502 385.302C163.803 384.81 163.415 384.473 163.7 383.516C163.726 383.335 164.01 383.128 164.372 382.843Z" fill="#F0EFEF"/>
<path id="Vector_53" opacity="0.4" d="M157.775 376.918C155.446 377.85 149.521 380.799 147.84 381.705C149.237 382.584 149.884 384.706 150.091 386.853C150.116 387.06 150.142 387.242 150.168 387.449C150.194 387.63 150.22 387.759 150.246 387.837C150.246 387.863 150.246 387.914 150.272 387.94C151.798 383.775 157.257 379.376 157.464 379.04C157.568 378.885 157.335 378.212 157.697 377.565C158.163 376.737 159.069 376.375 157.775 376.918ZM163.312 396.452C164.502 394.072 164.528 391.795 164.502 389.13C164.502 388.018 165.304 386.439 164.89 386.879C163.338 388.613 159.431 391.873 156.611 392.054C160.569 391.925 162.122 393.917 163.312 396.452Z" fill="#010101"/>
<path id="Vector_54" d="M145.562 383.904C147.037 382.843 154.67 378.781 156.507 378.212C158.344 377.617 157.775 376.918 157.775 376.918C157.775 376.918 150.323 380.126 145.873 382.895" fill="#010101"/>
<path id="Vector_55" opacity="0.4" d="M167.296 376.426C166.701 376.193 166.235 376.892 166.391 377.565C166.546 378.237 167.943 378.988 167.865 381.446C167.814 383.464 167.374 384.292 167.374 384.292L166.391 383.05C166.391 383.05 166.235 380.255 165.899 379.842C165.563 379.428 164.502 378.677 164.088 378.289C163.674 377.901 164.554 377.384 164.502 376.659C164.45 375.961 164.942 374.563 164.942 374.563L167.296 376.426ZM170.893 387.448C170.841 389.389 171.281 392.261 171.462 393.632C171.643 395.003 171.876 395.107 171.462 395.728C171.048 396.323 170.505 397.306 170.505 397.306L168.719 397.151C168.719 397.151 170.142 395.34 170.22 395.003C170.297 394.667 169.495 392.106 169.495 392.106L170.893 387.448ZM167.452 369.337C167.814 370.139 168.254 370.501 168.952 370.734C169.366 370.889 170.996 371.096 171.643 370.372C171.928 370.035 171.746 369.13 171.746 369.13L170.272 370.32L168.279 369.958L168.047 369.363L167.452 369.337Z" fill="#010101"/>
<path id="Vector_56" d="M163.363 395.365C163.312 395.314 163.415 395.262 163.363 395.262C163.027 395.262 162.561 395.003 162.303 394.641C161.19 393.037 159.56 391.976 156.61 392.054C152.186 392.157 150.427 390.346 150.09 386.879C149.909 384.99 149.392 383.153 148.331 382.118L147.71 382.506C148.9 383.541 149.288 385.223 149.547 387.526C149.961 390.993 152.755 392.597 156.015 392.649C159.405 392.7 160.621 393.399 161.888 395.107C162.302 395.65 162.768 395.831 163.13 395.909L163.363 395.365Z" fill="#010101"/>
<path id="Vector_57" opacity="0.4" d="M175.369 378.729C175.446 379.117 175.653 379.867 176.067 380.229C176.248 380.41 176.274 380.462 176.119 380.462C175.964 380.462 174.825 380.41 174.825 380.41L174.515 379.867L175.369 378.729Z" fill="#010101"/>
</g>
</g>
<g id="Jquery">
<g id="jquery-1" clip-path="url(#clip2)">
<g id="Group_4">
<path id="Vector_58" fill-rule="evenodd" clip-rule="evenodd" d="M292.369 263.013L294.877 263.027C294.877 263.027 290.214 269.346 289.833 269.861C289.709 270.028 289.522 270.208 289.426 270.43C289.185 270.991 288.938 272.22 288.938 272.22L286.643 272.232C286.643 272.232 287 270.95 286.985 270.268C286.972 269.671 286.668 269.076 286.497 268.478C286.325 267.872 286.09 266.688 286.09 266.688H288.45L288.775 267.99L292.369 263.013Z" fill="#1A1918"/>
<path id="Vector_59" fill-rule="evenodd" clip-rule="evenodd" d="M287.619 264.345C288.082 264.624 288.366 266.163 288.366 266.163C288.366 266.163 285.944 266.199 284.626 266.199H283.487L282.104 272.22H279.988C279.988 272.22 281.305 265.677 281.616 264.491C281.716 264.106 282.305 264.172 283.3 264.172H284.889C285.916 264.172 287.115 264.041 287.619 264.345ZM277.771 267.277C277.771 267.277 277.837 266.891 277.547 266.443C277.3 266.062 277.072 265.973 276.421 265.952C274.583 265.895 274.618 267.257 274.618 267.257L277.771 267.277ZM279.764 265.717C280.034 266.689 279.52 268.972 279.52 268.972C279.52 268.972 276.839 268.927 275.371 268.972C274.914 268.986 274.368 268.922 274.232 269.135C274.041 269.432 274.302 269.891 274.523 270.084C274.778 270.307 275.274 270.332 275.452 270.355C276.644 270.506 279.139 270.394 279.139 270.394L278.707 272.308C278.707 272.308 275.182 272.484 273.418 272.063C273.07 271.981 272.744 271.813 272.523 271.575C272.463 271.51 272.411 271.422 272.354 271.345C272.309 271.284 272.176 271.083 272.116 270.924C271.714 269.851 272.164 267.795 272.605 266.694C272.656 266.566 272.72 266.404 272.788 266.267C272.872 266.095 272.944 265.901 273.011 265.799C273.057 265.728 273.113 265.682 273.16 265.616C273.215 265.537 273.278 265.46 273.337 265.392C273.5 265.203 273.684 265.07 273.906 264.904C274.641 264.354 275.971 263.927 277.568 264.09C278.169 264.152 279.077 264.367 279.52 264.985C279.639 265.15 279.698 265.478 279.764 265.717V265.717ZM270.062 264.165L272.113 264.153C272.113 264.153 270.97 269.576 270.388 272.22H268.028C266.379 272.22 264.91 272.424 264.285 271.243C263.679 270.097 264.258 268.212 264.529 266.931C264.722 266.025 265.126 264.172 265.126 264.172L267.251 264.153C267.251 264.153 266.651 267.037 266.401 268.477C266.311 268.993 266.127 269.479 266.32 269.86C266.503 270.223 266.759 270.249 267.54 270.267C267.787 270.273 268.598 270.267 268.598 270.267L270.062 264.165ZM260.461 268.07C260.676 267.307 260.989 266.48 260.95 265.792C260.907 265.057 260.29 264.387 259.892 264.246C258.694 263.823 257.572 264.415 257.126 264.897C256.549 265.522 256.353 266.252 256.149 267.257C255.997 268.003 255.873 268.79 256.149 269.372C256.639 270.401 258.166 270.176 259.811 270.186C260.055 269.532 260.256 268.797 260.461 268.07ZM263.309 265.06C263.543 266.764 262.644 268.644 262.025 270.279C262.657 270.336 263.21 270.271 263.25 270.318C263.291 270.379 262.827 272.269 262.665 272.274C262.164 272.287 260.503 272.301 259.811 272.301C257.551 272.301 255.437 272.448 254.359 271.325C253.922 270.868 253.619 270.086 253.546 269.535C253.424 268.616 253.577 267.603 253.79 266.769C253.983 266.015 254.23 265.304 254.603 264.653C255.553 262.996 257.205 261.766 259.973 262.05C260.51 262.105 261.282 262.34 261.763 262.619C261.797 262.639 261.913 262.731 261.94 262.748C262.591 263.162 263.184 264.15 263.309 265.06ZM253.312 264.175C253.176 264.797 253.039 265.503 252.895 266.118H250.617C250.793 265.436 250.928 264.758 251.105 264.165C251.834 264.165 252.512 264.175 253.312 264.175H253.312ZM250.535 266.687H252.732C252.445 268.277 251.876 270.842 251.43 272.627C251.151 273.744 250.965 274.559 250.21 275.149C250.142 275.202 250.103 275.177 250.047 275.23C249.908 275.363 249.264 275.517 248.908 275.556C248.329 275.618 247.674 275.564 246.962 275.549C247.148 274.868 247.359 274.05 247.525 273.44C249.261 273.65 249.304 272.01 249.64 270.43C249.835 269.517 250.424 267.053 250.535 266.687Z" fill="#1A1918"/>
<g id="Group_5">
<path id="Vector_60" fill-rule="evenodd" clip-rule="evenodd" d="M245.409 270.837L245.362 270.959C244.56 272.521 243.139 273.48 241.111 273.522C240.163 273.541 239.26 273.298 238.67 273.034C237.397 272.462 236.326 271.401 235.741 270.267C234.902 268.643 234.751 266.382 236.495 264.694C236.522 264.694 236.284 265.06 236.311 265.06L236.263 265.217C235.006 269.152 238.879 272.525 242.643 272.139C243.548 272.046 244.702 271.551 245.409 270.837Z" fill="#21609B"/>
<path id="Vector_61" fill-rule="evenodd" clip-rule="evenodd" d="M243.131 269.209C244.078 269.215 245.068 268.773 245.654 268.151C245.141 269.452 243.657 270.288 241.667 270.022C240.001 269.799 238.413 268.123 238.25 266.442C238.13 265.22 238.556 264.49 239.259 263.604C239.015 264.068 238.923 264.425 238.901 264.652C238.634 267.297 241.014 269.195 243.131 269.209Z" fill="#21609B"/>
<path id="Vector_62" fill-rule="evenodd" clip-rule="evenodd" d="M245.558 265.924C245.411 266.262 244.563 266.9 244.189 266.979C242.707 267.295 241.757 266.592 241.26 265.792C241.186 265.673 241.049 265.347 241.025 265.264C240.832 264.608 240.921 263.616 241.496 263.103C241.323 263.591 241.297 264.158 241.389 264.526C241.444 264.749 241.612 265.138 241.781 265.383C242.087 265.829 242.282 265.937 242.676 266.174C242.853 266.281 243.043 266.366 243.126 266.39C243.499 266.499 244.288 266.789 245.559 265.924" fill="#21609B"/>
</g>
</g>
</g>
</g>
<g id="Wordpress">
<g id="wordpress-icon-1 1" clip-path="url(#clip3)">
<path id="Vector_63" d="M198.326 340.525C192.326 343.989 184.695 342.02 181.25 335.95C177.806 329.88 179.601 322.469 185.826 318.875C192.051 315.281 199.463 317.496 202.901 323.45C206.338 329.404 204.325 337.062 198.326 340.525ZM200.564 337.008L192.732 330.524L194.715 340.626C197.122 339.898 198.643 339.2 200.564 337.008ZM192.817 340.88L180.95 330.951C181.1 332.669 181.616 333.875 182.333 335.325C184.513 338.997 188.541 341.183 192.817 340.88ZM201.774 324.101C200.438 321.685 198.262 320.415 198.016 320.197C199.174 321.994 199.45 323.097 199.733 324.317L201.81 335.206C204.399 330.524 203.108 326.518 201.818 324.075L201.774 324.101ZM191.526 329.476L187.57 326.167L186.39 326.728C185.757 326.672 185.741 326.02 186.057 325.838C188.165 324.801 189.292 324.151 191.244 322.843C191.741 322.557 192.292 323.2 191.758 323.629L190.727 324.344L200.235 332.687L198.622 326.041C197.28 323.508 196.447 323.628 194.503 322.345C192.974 321.363 192.96 319.567 194.333 318.715C192.579 318.283 189.498 318.258 186.45 319.958C183.401 321.657 181.085 325.04 180.857 329.021L184.143 327.003C184.653 326.95 184.811 327.64 184.612 327.815L183.491 328.582L193.103 337.106L191.526 329.476Z" fill="#21759B"/>
</g>
</g>
<g id="Bootstrap">
<g id="bootstrap-5-1" clip-path="url(#clip4)">
<path id="Vector_64" fill-rule="evenodd" clip-rule="evenodd" d="M354.154 262.003C353.013 262.003 352.168 263.002 352.206 264.085C352.243 265.126 352.195 266.473 351.856 267.573C351.516 268.675 350.94 269.373 350 269.463V270.475C350.94 270.565 351.516 271.263 351.856 272.365C352.195 273.465 352.243 274.812 352.206 275.853C352.168 276.936 353.013 277.935 354.154 277.935H365.847C366.989 277.935 367.833 276.936 367.795 275.853C367.759 274.812 367.806 273.465 368.145 272.365C368.486 271.263 369.06 270.565 370 270.475V269.463C369.06 269.373 368.486 268.675 368.145 267.573C367.806 266.474 367.759 265.126 367.795 264.085C367.833 263.002 366.989 262.003 365.847 262.003H354.154H354.154ZM363.559 271.81C363.559 273.302 362.447 274.206 360.601 274.206H357.458C357.368 274.206 357.281 274.171 357.218 274.107C357.154 274.043 357.119 273.957 357.119 273.867V266.071C357.119 265.981 357.154 265.895 357.218 265.831C357.281 265.767 357.368 265.732 357.458 265.732H360.583C362.122 265.732 363.132 266.566 363.132 267.846C363.132 268.745 362.453 269.549 361.587 269.69V269.737C362.766 269.866 363.559 270.683 363.559 271.81ZM360.258 266.806H358.466V269.338H359.975C361.142 269.338 361.785 268.868 361.785 268.028C361.785 267.241 361.232 266.806 360.258 266.806ZM358.466 270.342V273.131H360.324C361.539 273.131 362.182 272.644 362.182 271.728C362.182 270.812 361.521 270.342 360.246 270.342H358.466V270.342Z" fill="#7952B3"/>
</g>
</g>
</g>
</g>
<g id="Clock">
<path id="clock-color" d="M59.214 144.143C86.6477 144.143 108.887 121.892 108.887 94.4442C108.887 66.9961 86.6477 44.7451 59.214 44.7451C31.7804 44.7451 9.54102 66.9961 9.54102 94.4442C9.54102 121.892 31.7804 144.143 59.214 144.143Z" fill="#5F389E" fill-opacity="0.76"/>
<path id="Vector_65" d="M76.5244 35.3853C72.0268 34.813 67.4749 34.813 62.9772 35.3853C52.9573 36.7016 43.525 40.8662 35.7997 47.385C28.0744 53.9038 22.3803 62.5031 19.393 72.1625C18.0344 76.5646 17.265 81.1275 17.105 85.7319C17.0825 86.372 17.0674 87.0196 17.0674 87.6672C17.0813 101.643 22.6364 115.042 32.5134 124.924C42.3905 134.806 55.7826 140.364 69.7509 140.378C70.8723 140.378 71.9937 140.341 73.1 140.273C75.6971 140.11 78.2783 139.752 80.8219 139.204C92.9689 136.59 103.802 129.766 111.408 119.936C119.014 110.106 122.903 97.9035 122.389 85.4829C121.875 73.0624 116.99 61.2232 108.598 52.0563C100.206 42.8895 88.8458 36.9849 76.5244 35.3853H76.5244ZM86.2407 136.146H86.2332C81.9903 137.595 77.574 138.474 73.1 138.759C71.9936 138.835 70.8722 138.872 69.7508 138.872C56.1826 138.856 43.1749 133.455 33.5807 123.856C23.9865 114.257 18.5892 101.242 18.5726 87.6672C18.5726 87.0196 18.5876 86.372 18.6102 85.7319C19.1276 72.502 24.7399 59.9852 34.2721 50.8016C43.8044 41.618 56.5177 36.4796 69.7508 36.4621C81.8756 36.4628 93.6064 40.7702 102.853 48.6169C112.1 56.4637 118.262 67.3401 120.242 79.3084C122.222 91.2768 119.891 103.56 113.664 113.969C107.437 124.378 97.7187 132.237 86.2407 136.146H86.2407Z" fill="black"/>
<path id="Vector_66" d="M70.5033 39.4746H68.998V50.0168H70.5033V39.4746Z" fill="black"/>
<path id="Vector_67" d="M36.2231 53.0571L35.1587 54.1221L42.6093 61.5765L43.6736 60.5116L36.2231 53.0571Z" fill="black"/>
<path id="Vector_68" d="M21.583 86.9139V88.4199H32.1197V86.9139H21.583Z" fill="black"/>
<path id="Vector_69" d="M35.1588 121.212L36.2231 122.277L43.6737 114.823L42.6093 113.758L35.1588 121.212Z" fill="black"/>
<path id="Vector_70" d="M95.8277 60.5122L96.8921 61.5771L104.343 54.1227L103.278 53.0577L95.8277 60.5122Z" fill="black"/>
<path id="Vector_71" d="M107.382 86.9139V88.4199H117.919V86.9139H107.382Z" fill="black"/>
<path id="Vector_72" d="M96.892 113.757L95.8276 114.822L103.278 122.277L104.343 121.212L96.892 113.757Z" fill="black"/>
<path id="Vector_73" d="M70.5033 125.318H68.998V135.861H70.5033V125.318Z" fill="black"/>
<path id="clock-center" d="M72.0089 84.6554C71.3575 84.1666 70.5653 83.9023 69.751 83.9023C68.9368 83.9023 68.1446 84.1666 67.4932 84.6554C67.0473 84.9943 66.6801 85.4259 66.417 85.9204C66.0836 86.5573 65.9393 87.2763 66.0013 87.9926C66.0634 88.7088 66.329 89.3923 66.7669 89.9623C67.2048 90.5323 67.7966 90.965 68.4725 91.2092C69.1483 91.4533 69.8799 91.4988 70.5807 91.3403C71.2816 91.1817 71.9224 90.8257 72.4275 90.3144C72.9326 89.8031 73.2808 89.1577 73.431 88.4547C73.5812 87.7516 73.5271 87.0203 73.2751 86.347C73.0231 85.6737 72.5838 85.0867 72.0089 84.6554H72.0089ZM69.751 89.9265C69.1528 89.9247 68.5795 89.6861 68.1564 89.2629C67.7334 88.8396 67.4949 88.266 67.4932 87.6674C67.4961 87.2105 67.635 86.7649 67.8921 86.3873C68.1126 86.0677 68.4118 85.8105 68.7608 85.6405C69.1097 85.4705 69.4966 85.3935 69.884 85.4168C70.2715 85.4402 70.6463 85.5632 70.9723 85.7739C71.2983 85.9847 71.5645 86.276 71.745 86.6197C71.9256 86.9635 72.0144 87.348 72.003 87.7362C71.9915 88.1243 71.8802 88.503 71.6797 88.8355C71.4792 89.168 71.1963 89.4431 70.8585 89.6342C70.5206 89.8253 70.1392 89.926 69.751 89.9265V89.9265Z" fill="black"/>
<path id="Vector_74" d="M76.5242 22.1553H62.9771V35.7096H76.5242V22.1553Z" fill="#010101"/>
<path id="Vector_75" d="M69.7509 24.4146C79.7268 24.4146 87.8138 21.5489 87.8138 18.0139C87.8138 14.4789 79.7268 11.6133 69.7509 11.6133C59.775 11.6133 51.688 14.4789 51.688 18.0139C51.688 21.5489 59.775 24.4146 69.7509 24.4146Z" fill="#252525"/>
<path id="clock-arrow" d="M72.0089 59.0527H67.4932V84.6553H72.0089V59.0527Z" fill="black"/>
</g>
<path id="clock-desk" d="M141.493 138.084H0V139.59H141.493V138.084Z" fill="#3F3D56"/>
</g>
</g>
<defs>
<clipPath id="clip0">
<rect width="20" height="28.2304" fill="white" transform="translate(209.845 368) rotate(5)"/>
</clipPath>
<clipPath id="clip1">
<rect width="45" height="33.75" fill="white" transform="translate(321.24 298.072) rotate(25)"/>
</clipPath>
<clipPath id="clip2">
<rect width="60" height="13.584" fill="white" transform="translate(235 262)"/>
</clipPath>
<clipPath id="clip3">
<rect width="25" height="25" fill="white" transform="translate(175 324.5) rotate(-30)"/>
</clipPath>
<clipPath id="clip4">
<rect width="20" height="15.936" fill="white" transform="translate(350 262)"/>
</clipPath>
</defs>
</svg>
